# xmcd
#
# Track frame offsets: 
#        150
#        11331
#        24752
#        37794
#        47830
#        60549
#        71666
#        82550
#        93725
#        105560
#        117128
#        128911
#        141216
#        153099
#        162687
#        173440
#        182656
#        193016
#        204080
#        215974
#        227625
#        239100
#        254281
#        263870
#        279006
#
# Disc length: 3867 seconds
#
# Revision: 1
# Processed by: cddbd v1.5.2PL0 Copyright (c) Steve Scherf et al.
# Submitted via: ExactAudioCopyFreeDBPlugin 1.0
#
DISCID=4a0f1919
DTITLE=Various Artist - Super Rare Electric Blues [CD1]
DYEAR=2013
DGENRE=Electric Blues
TTITLE0=Icky Renrut - Ho Ho 
TTITLE1=Wild Jimmy Spruill - Hard Grind 
TTITLE2=Juke Boy Bonner - Rock With Me Baby 
TTITLE3=Lafayette 'Thing' Thomas (feat  Al Price Orchestra)  - The Thi
TTITLE3=ng  
TTITLE4=Flash Terry - She's My Baby 
TTITLE5=Sly Williams - I Believe In A Woman  
TTITLE6=Piano Slim - Squeezing 
TTITLE7=Guitar Tommy Moore - I Ain't Botherin' Nobody 
TTITLE8=The Rocking Brothers - Behind The Sun 
TTITLE9=Guitar Shorty - Ways Of A Man 
TTITLE10=Lafayette 'Thing' Thomas - Weekly Blues  
TTITLE11=Johnny Otis Orchestra featuring Pete 'Guitar' Lewis - One Nig
TTITLE11=hter Blues  
TTITLE12=Bob Reed and His Band - I'm Leaving You 
TTITLE13=Joe Liggins and His Honeydrippers - In The Wee Wee Hours 
TTITLE14=Floyd Dixon featuring Johnny 'Guitar' Watson - Let's Go Smitt
TTITLE14=y  
TTITLE15=Johnny Morrisette - Brick 
TTITLE16=Ike Turner - Cubano Jump  
TTITLE17=Lafayette Thomas - Lafayette's A Coming  
TTITLE18=The Egyptians - Party Stomp  
TTITLE19=Willie Cobbs - You Don't Love Me 
TTITLE20=Muvva 'Guitar' Hubbard and The Stompers - Congo Mambo 
TTITLE21=Little Miss Janice - Scarred Knees 
TTITLE22=Charlie Lucas Combo - Walkin' 
TTITLE23=Johnny Jones and The King Casuals - Blues For The Brothers  
TTITLE24=Cliff Driver and His Drivers - Changing Times  
EXTD=
EXTT0=
EXTT1=
EXTT2=
EXTT3=
EXTT4=
EXTT5=
EXTT6=
EXTT7=
EXTT8=
EXTT9=
EXTT10=
EXTT11=
EXTT12=
EXTT13=
EXTT14=
EXTT15=
EXTT16=
EXTT17=
EXTT18=
EXTT19=
EXTT20=
EXTT21=
EXTT22=
EXTT23=
EXTT24=
PLAYORDER=
